<svg xmlns="http://www.w3.org/2000/svg" width="512" height="512" viewBox="0 0 512 512" version="1.1">
	<g>
		<path d="M 210 13.348 C 210 14.089, 213.488 16.412, 217.750 18.510 C 223.358 21.270, 227.445 24.284, 232.537 29.412 C 243.870 40.827, 248.925 53.738, 249.017 71.500 C 249.042 76.450, 249.715 85, 250.512 90.500 C 253.052 108.027, 252.100 122.572, 246.519 151.500 C 245.139 158.650, 244.008 165.010, 244.005 165.633 C 243.999 166.999, 248.081 167.898, 251.404 167.263 C 253.392 166.883, 255.069 164.144, 261.098 151.429 C 265.107 142.973, 268.507 136.174, 268.653 136.320 C 268.800 136.466, 268.100 139.267, 267.098 142.543 C 264.403 151.363, 263.869 154, 264.782 154 C 265.233 154, 266.633 151.862, 267.894 149.250 C 271.288 142.219, 283.681 121.384, 288.574 114.486 C 292.856 108.447, 300.589 100.689, 311.352 91.633 C 316.945 86.928, 317.115 86.641, 316.494 82.962 C 316.032 80.230, 316.322 78.438, 317.524 76.604 C 319.418 73.713, 327.654 69.432, 333.214 68.448 C 335.257 68.086, 337.490 67.114, 338.177 66.287 C 340.241 63.800, 336.561 62, 329.414 62 C 322.704 62, 310.111 65.364, 309.548 67.307 C 309.358 67.963, 308.517 71.468, 307.679 75.097 C 305.974 82.476, 303.252 89.586, 302.442 88.775 C 302.150 88.483, 303.094 83.127, 304.540 76.872 C 307.741 63.031, 308.638 50.008, 307.081 40 C 305.560 30.225, 303.286 25.500, 300.102 25.500 L 297.705 25.500 297.563 39 C 297.400 54.455, 296.561 57.374, 287.968 72.359 C 280.379 85.596, 277.609 89.683, 277.370 88 C 274.806 69.952, 274.786 68.666, 276.910 58.343 C 280.122 42.731, 279.314 29, 275.182 29 C 273.880 29, 273.182 30.408, 272.332 34.750 C 271.713 37.913, 269.900 43.388, 268.303 46.917 L 265.400 53.335 263.542 48.417 C 259.032 36.483, 248.824 25.596, 236.552 19.636 C 223.725 13.406, 210 10.155, 210 13.348 M 185 32.322 C 185 33.050, 186.368 36.171, 188.040 39.258 C 192.763 47.977, 194.282 57.142, 193.106 69.825 L 192.129 80.375 194.935 83.938 C 205.088 96.826, 213.702 115.197, 220.066 137.535 C 224.802 154.159, 226.954 159.713, 228.183 158.484 C 228.460 158.207, 228.477 146.622, 228.221 132.740 C 227.964 118.858, 228.048 107.776, 228.407 108.114 C 228.933 108.607, 232 130.085, 232 133.271 C 232 133.737, 232.395 133.874, 232.879 133.575 C 233.362 133.276, 234.115 127.287, 234.552 120.266 C 235.753 100.968, 237.027 110.231, 237.128 139 C 237.226 166.750, 238.125 165.954, 241.011 135.565 C 244.386 100.036, 243.425 82.520, 237.427 70.262 C 234.982 65.264, 231.679 62.093, 230.650 63.757 C 230.391 64.176, 229.423 67.439, 228.498 71.009 C 226.365 79.246, 225.083 81.625, 225.001 77.500 C 224.485 51.487, 219.153 29.449, 213.807 31.231 C 212.911 31.530, 212.515 34.661, 212.437 42.076 C 212.347 50.580, 211.849 53.827, 209.738 59.705 C 205.556 71.347, 205.065 71.613, 205.030 62.261 C 204.996 52.942, 203.029 46.524, 198.193 39.947 C 193.143 33.081, 185 28.375, 185 32.322 M 144.500 72.603 C 136.359 73.757, 122.828 77.315, 121.490 78.653 C 119.219 80.924, 120.598 81.998, 125.809 82.017 C 138.465 82.064, 153.092 87.890, 159.861 95.579 C 163.362 99.557, 169 109.632, 169 111.912 C 169 112.532, 167.792 112.708, 166 112.350 C 161.254 111.401, 162.435 113.396, 169.250 117.842 C 172.688 120.084, 177.975 124.456, 181 127.558 L 186.500 133.198 180 128.329 C 176.425 125.651, 169.242 121.261, 164.037 118.573 C 158.833 115.885, 152.557 112.407, 150.091 110.843 C 144.310 107.177, 143 107.225, 143 111.101 L 143 114.203 135.750 113.351 C 124.853 112.072, 112.421 112.684, 103.713 114.929 C 91.344 118.119, 73 128.621, 73 132.514 C 73 134.899, 74.743 135.084, 78.173 133.062 C 86.392 128.218, 106.366 126.391, 117.806 129.436 C 124.399 131.191, 125.815 132.345, 128.313 138 C 129.406 140.475, 132.033 145.249, 134.150 148.608 C 136.268 151.967, 138 155.005, 138 155.358 C 138 155.711, 135.188 156.008, 131.750 156.017 C 119.247 156.052, 105.200 160.624, 98.750 166.759 C 95.337 170.005, 95.090 172.445, 98.250 171.710 C 109.506 169.093, 111.898 168.762, 114.537 169.456 C 117.493 170.233, 117.488 170.239, 112.500 171.973 C 95.343 177.936, 81.404 189.376, 74.361 203.273 C 72.998 205.964, 72.021 209.136, 72.191 210.322 C 72.766 214.337, 75.503 213.226, 80.318 207.027 C 86.355 199.253, 96.144 192.070, 107.548 187.047 C 122.428 180.494, 127.400 179.496, 145 179.532 C 161.620 179.566, 171.041 181.352, 180.323 186.229 C 194.209 193.524, 195.415 192.671, 182.195 184.905 C 177.413 182.096, 171.167 178.051, 168.316 175.916 C 161.722 170.979, 151.693 165.459, 144.837 162.992 C 136.394 159.955, 141.706 160.689, 151.062 163.853 C 163.309 167.994, 173.404 172.984, 182.473 179.378 C 186.859 182.470, 191.134 184.981, 191.973 184.958 C 194.104 184.900, 186.573 178.377, 181 175.454 C 175.902 172.780, 176.266 172.249, 181.654 174.500 C 185.750 176.211, 187.892 176.473, 186.450 175.086 C 185.927 174.584, 181.713 171.884, 177.085 169.086 C 167.872 163.518, 167.156 162.538, 175.283 166.620 C 181.589 169.788, 181.363 169.517, 171.366 161.925 C 167.040 158.640, 157.786 153.034, 150.803 149.467 C 143.820 145.900, 137.831 142.536, 137.494 141.991 C 135.867 139.358, 143.125 141.571, 153.259 146.796 C 168.790 154.804, 178.338 161.483, 189.480 172.135 C 194.716 177.141, 199 180.887, 199 180.459 C 199 176.782, 163.567 140.102, 154.070 133.949 L 148.919 130.610 152.445 129.204 C 155.763 127.881, 156.349 127.975, 162.379 130.796 C 177.384 137.818, 192.878 150.535, 200.471 162.062 C 202.986 165.878, 205.213 169, 205.422 169 C 205.853 169, 202.639 154.283, 201.068 149.066 C 200.499 147.178, 200.196 145.471, 200.394 145.273 C 201.084 144.583, 205.782 157.549, 206.998 163.500 C 208.077 168.778, 210.852 175.906, 210.960 173.677 C 210.982 173.225, 210.058 169.029, 208.907 164.353 C 207.756 159.678, 207.034 155.633, 207.302 155.365 C 207.570 155.097, 209.424 158.168, 211.422 162.189 C 215.321 170.036, 215.358 169.962, 213.514 158 C 213.068 155.109, 213.542 155.668, 216.237 161.212 C 218.032 164.903, 219.809 167.941, 220.187 167.962 C 221.995 168.062, 216.861 147.190, 211.965 134.534 C 204.359 114.875, 192.328 91.583, 186.378 84.997 C 182.461 80.661, 174.712 76.275, 167.650 74.396 C 162.058 72.909, 149.308 71.921, 144.500 72.603 M 265.243 74.250 C 263.408 76.541, 260.253 83.459, 259.543 86.750 C 258.467 91.734, 260.741 90.774, 263.097 85.250 C 264.212 82.638, 265.771 79.193, 266.562 77.596 C 267.353 75.999, 268 74.312, 268 73.846 C 268 72.587, 266.387 72.823, 265.243 74.250 M 343.334 82.481 C 325.411 85.733, 317.474 89.981, 302.263 104.464 C 289.311 116.797, 280.592 127.879, 274.838 139.322 C 270.743 147.467, 267.655 156.040, 268.848 155.952 C 269.207 155.926, 271.028 153.490, 272.895 150.540 C 274.762 147.590, 281.206 140.299, 287.214 134.338 L 298.137 123.500 289.269 135.500 C 278.681 149.826, 263 174.261, 263 176.434 C 263 178.529, 265.728 175.626, 272.570 166.250 C 282.270 152.959, 313.973 120.501, 325.034 112.537 C 336.639 104.181, 347.450 98.282, 356.302 95.474 C 367.512 91.919, 368.735 92.469, 359.429 96.883 C 345.692 103.397, 340.684 107.304, 317.303 129.752 C 296.082 150.126, 266.972 181.239, 267.022 183.493 C 267.034 184.047, 267.839 185.532, 268.809 186.794 L 270.575 189.087 285.537 181.595 C 302.809 172.947, 321.817 165.635, 333.968 162.964 C 338.625 161.940, 342.593 161.260, 342.786 161.453 C 342.978 161.645, 338.493 163.210, 332.818 164.930 C 309.286 172.063, 280.709 183.985, 273.201 189.801 C 271.659 190.996, 271.122 192.154, 271.570 193.321 C 272.434 195.574, 274.730 194.880, 282.531 190.011 C 296.416 181.342, 308.544 176.114, 329.837 169.615 C 360.305 160.316, 372.663 154.256, 376.307 146.829 C 377.829 143.725, 377.824 143.413, 376.225 142.211 C 374.078 140.597, 374.829 140.053, 384.177 136.453 C 394.932 132.310, 395.714 129.048, 385.960 129.015 C 378.635 128.991, 370.348 131.684, 358.551 137.923 C 352.473 141.137, 345.700 144.321, 343.500 144.998 C 341.300 145.675, 334.484 148.427, 328.353 151.114 C 322.222 153.802, 316.822 155.992, 316.353 155.983 C 315.884 155.974, 319.325 153.917, 324 151.411 C 328.675 148.905, 336.064 144.573, 340.420 141.783 C 348.634 136.522, 362.466 129.658, 367.250 128.467 C 370.572 127.641, 370.856 125.463, 367.750 124.630 C 363.673 123.538, 350.623 124.009, 343.569 125.503 C 339.757 126.311, 336.481 126.814, 336.289 126.622 C 335.585 125.918, 359.742 110.701, 367.500 106.962 C 381.226 100.346, 391.466 97.878, 407.750 97.263 C 420.941 96.764, 422 96.582, 422 94.807 C 422 91.177, 402.202 84.595, 383.678 82.067 C 373.279 80.648, 352.245 80.864, 343.334 82.481 M 177.046 88.445 C 174.957 90.962, 176.163 94.461, 179.242 94.816 C 182.678 95.211, 185.155 91.096, 183.025 88.530 C 181.425 86.602, 178.608 86.562, 177.046 88.445 M 144.374 124.469 C 143.559 126.592, 144.806 128, 147.500 128 C 151.871 128, 151.387 125.341, 146.712 123.672 C 145.609 123.278, 144.713 123.584, 144.374 124.469 M 383.729 152.200 C 382.320 154.603, 378.900 158.691, 376.127 161.284 L 371.086 166 376.293 166.013 C 382.886 166.030, 395.491 170.362, 405.741 176.132 C 417.473 182.736, 430.276 195.924, 436.196 207.500 C 447.553 229.709, 449.630 252.241, 442.510 275.984 C 441.110 280.650, 440.184 285.037, 440.451 285.734 C 442.292 290.529, 447.924 281.028, 452.613 265.219 C 456.142 253.319, 457.015 232.625, 454.541 219.510 C 449.501 192.791, 436.589 173.032, 415.086 159.134 C 408.541 154.903, 396.132 149.668, 389.894 148.504 C 386.444 147.860, 386.179 148.019, 383.729 152.200 M 234.029 154.395 C 233.344 156.844, 232.983 159.445, 233.228 160.174 C 233.473 160.903, 234.248 159.113, 234.950 156.196 C 236.513 149.698, 235.758 148.221, 234.029 154.395 M 307.651 158.949 C 304.434 160.516, 301.284 162.341, 300.651 163.004 C 299.685 164.015, 313.677 157.521, 314.917 156.383 C 316.139 155.260, 312.812 156.435, 307.651 158.949 M 262.976 166.038 C 261.198 168.809, 260.003 171.336, 260.320 171.653 C 260.910 172.243, 267 163.264, 267 161.804 C 267 160.198, 266.148 161.095, 262.976 166.038 M 294.750 171.566 C 292.137 172.926, 290 174.262, 290 174.536 C 290 174.810, 292.250 173.894, 295 172.500 C 297.750 171.106, 300 169.749, 300 169.483 C 300 168.822, 300.090 168.786, 294.750 171.566 M 228 173.678 C 211.124 179.749, 201.792 197.931, 206.374 215.813 C 208.221 223.024, 209.841 225.891, 215.427 231.833 C 222.127 238.960, 225.947 240.494, 237 240.497 C 245.781 240.500, 246.916 240.265, 252 237.396 C 258.783 233.568, 265.078 226.067, 267.988 218.344 C 271.134 209.995, 270.540 196.783, 266.683 189.283 C 261 178.233, 252.280 172.682, 240 172.295 C 235.067 172.140, 230.960 172.613, 228 173.678 M 343.715 175.126 C 337.565 175.917, 324.477 179.725, 304 186.681 C 299.875 188.082, 292.450 191.350, 287.500 193.942 C 282.550 196.535, 276.965 199.186, 275.088 199.833 C 269.532 201.748, 272.191 202.166, 278.938 200.437 C 282.367 199.559, 285.370 199.037, 285.611 199.277 C 285.851 199.518, 283.387 200.685, 280.136 201.870 C 273.348 204.345, 270.231 207.004, 274.128 206.994 C 275.432 206.991, 279.200 206.541, 282.500 205.995 C 294.981 203.929, 315.883 202.877, 323.473 203.933 C 329.307 204.744, 331.691 204.667, 334.809 203.567 C 345.014 199.967, 360.938 201.181, 374.450 206.590 C 378.018 208.019, 381.467 209.011, 382.115 208.795 C 384.082 208.139, 377.509 201.561, 370.249 196.918 C 366.537 194.545, 363.313 192.467, 363.083 192.302 C 362.854 192.136, 362.933 191.733, 363.259 191.407 C 364.218 190.449, 374.851 193.900, 381.941 197.470 C 389.439 201.246, 399.172 208.308, 403.348 213.002 C 405.297 215.192, 406.521 215.879, 407.224 215.176 C 408.947 213.453, 407.176 207.583, 402.971 201.076 C 394.861 188.528, 384.538 181.158, 368.638 176.562 C 359.433 173.901, 355.154 173.654, 343.715 175.126 M 117.635 185.465 C 108.439 188.710, 100.162 194.569, 102.126 196.442 C 102.332 196.638, 105.650 196.185, 109.500 195.436 C 118.699 193.645, 124.261 193.664, 128.658 195.501 C 131.952 196.878, 132.790 196.836, 138.731 195.001 C 150.717 191.299, 165.763 192.620, 178.069 198.455 C 181.056 199.872, 182.600 200.761, 181.500 200.431 C 175.120 198.516, 158.951 196, 153.030 196 C 136.614 196, 117.172 202.940, 102.256 214.124 C 97.366 217.790, 93 224.034, 93 227.361 C 93 228.154, 94.615 229.755, 96.588 230.920 L 100.177 233.037 96.035 237.768 C 84.072 251.436, 77.564 262.119, 72.399 276.571 C 58.266 316.115, 67.684 365.246, 97.494 407.481 C 103.942 416.617, 105.547 417.882, 107.813 415.616 C 109.089 414.339, 108.379 412.668, 102.088 402.148 C 87.055 377.006, 81 356.881, 81 332.059 C 81 314.187, 86.156 293.594, 95.074 275.849 C 101.252 263.556, 106.336 256.479, 115.623 247.244 C 122.027 240.876, 124.182 238.018, 125.045 234.744 C 126.659 228.619, 130.191 223.001, 135.505 218.102 C 138.061 215.746, 139.978 213.644, 139.764 213.431 C 139.312 212.979, 125.781 219.715, 121.750 222.399 C 119.477 223.912, 119 223.973, 119 222.748 C 119 219.666, 139.208 208.828, 150.500 205.853 C 154.350 204.839, 162.225 203.761, 168 203.458 C 183.255 202.657, 187 202.082, 187 200.539 C 187 199.802, 183.237 197.625, 178.638 195.700 C 170.460 192.276, 164.683 190.721, 148.500 187.587 L 140.500 186.038 147 186.580 C 150.575 186.878, 154.625 187.348, 156 187.624 C 160.793 188.587, 155.564 186.121, 149.414 184.519 C 140.186 182.116, 125.923 182.540, 117.635 185.465 M 223.150 191.527 C 219.384 194.696, 218.434 198.709, 220.359 203.316 C 222.076 207.425, 224.542 209, 229.260 209 C 239.036 209, 241.127 193.331, 231.785 190.075 C 227.397 188.545, 226.519 188.693, 223.150 191.527 M 274 192 C 273.175 192.533, 272.950 192.969, 273.500 192.969 C 274.050 192.969, 275.175 192.533, 276 192 C 276.825 191.467, 277.050 191.031, 276.500 191.031 C 275.950 191.031, 274.825 191.467, 274 192 M 272.500 197 C 272.160 197.550, 272.332 198, 272.882 198 C 273.432 198, 274.160 197.550, 274.500 197 C 274.840 196.450, 274.668 196, 274.118 196 C 273.568 196, 272.840 196.450, 272.500 197 M 334.500 205.901 C 332.850 206.361, 331.050 206.875, 330.500 207.044 C 329.950 207.213, 326.125 207.009, 322 206.590 C 316.774 206.059, 310.558 206.334, 301.500 207.496 C 285.787 209.512, 272.995 211.671, 272.230 212.437 C 270.856 213.811, 273.336 213.944, 282.605 212.993 C 291.601 212.069, 293.690 212.205, 304.882 214.436 C 311.675 215.791, 317.518 217.207, 317.866 217.584 C 318.215 217.961, 313.775 217.957, 308 217.576 C 301.487 217.146, 297.880 217.237, 298.500 217.816 C 299.050 218.329, 303.775 219.955, 309 221.428 C 314.225 222.901, 320.750 225.214, 323.500 226.568 C 326.250 227.921, 327.600 228.768, 326.500 228.449 C 316.018 225.410, 297 223.043, 297 224.777 C 297 225.362, 298.462 226.158, 300.250 226.545 C 303.341 227.215, 319.272 234.845, 317.799 234.950 C 317.413 234.978, 314.506 234.325, 311.339 233.500 C 308.171 232.675, 304.212 232.001, 302.540 232.002 C 299.914 232.004, 300.656 232.655, 308 236.783 C 334.061 251.435, 348.618 265.672, 360.415 288.046 C 363.012 292.971, 365.508 297, 365.963 297 C 368.574 297, 366.924 278.558, 363.624 270.857 C 360.517 263.608, 354.997 255.237, 347.936 247.065 L 340.733 238.730 345.825 241.501 C 348.625 243.025, 354.461 247.109, 358.794 250.575 C 385.120 271.639, 400.775 300.512, 402.655 331.468 C 403.861 351.328, 399.524 369.235, 388.942 388.087 C 382.587 399.411, 381.841 402, 384.935 402 C 387.694 402, 400.380 384.794, 406.717 372.457 C 419.155 348.240, 422.742 326.106, 418.088 302.285 C 413.012 276.305, 400.587 255.231, 381.315 239.917 C 373.820 233.961, 362.632 226.412, 356.928 223.463 C 351.901 220.863, 354.669 219.568, 365.267 219.560 C 373.660 219.554, 375.315 219.892, 383.465 223.277 C 393.604 227.488, 394 227.571, 394 225.498 C 394 223.740, 383.633 215.869, 376.654 212.328 C 366.454 207.152, 342.906 203.563, 334.500 205.901 M 171.477 210.988 C 150.733 214.037, 134.452 224.431, 127.236 239.232 C 121.512 250.974, 121.018 257.911, 126.466 250.049 C 131.915 242.187, 144 232.200, 144 235.560 C 144 235.868, 141.821 238.455, 139.157 241.310 C 125.662 255.774, 119.329 266.410, 118.305 276.335 L 117.742 281.790 124.621 281.317 C 128.404 281.056, 131.975 280.701, 132.556 280.527 C 133.137 280.353, 135.342 277.254, 137.456 273.640 C 146.830 257.611, 159.120 245.217, 174.750 236.032 C 178.738 233.689, 182 231.625, 182 231.446 C 182 231.266, 178.963 232.170, 175.250 233.454 C 171.537 234.739, 167.600 236.096, 166.500 236.471 C 165.400 236.846, 166.259 236.024, 168.409 234.643 C 172.570 231.972, 186.035 227.342, 194.796 225.571 C 201.812 224.152, 201.035 222.464, 193.447 222.642 C 181.605 222.919, 165.732 228.679, 155.798 236.304 C 153.212 238.289, 151.344 239.268, 151.647 238.478 C 152.282 236.823, 163.941 228.044, 168.750 225.600 C 177.495 221.156, 166.691 222.747, 155.658 227.529 C 145.002 232.147, 147.887 228.724, 159.358 223.140 C 171.559 217.200, 183.675 213.156, 191.404 212.444 C 196.008 212.020, 197.840 211.512, 196.904 210.919 C 195.258 209.877, 178.728 209.922, 171.477 210.988 M 266 226.879 C 266 227.363, 269.595 229.243, 273.989 231.057 C 278.383 232.871, 281.855 234.478, 281.706 234.628 C 281.556 234.777, 277.745 233.746, 273.237 232.335 C 260.413 228.323, 257.992 230.886, 268.250 237.616 C 271.688 239.872, 279.675 245.121, 286 249.282 C 305.742 262.269, 315.701 272.143, 320.385 283.372 C 322.952 289.525, 322.258 290.973, 319.369 285.492 C 312.709 272.852, 305.381 265.527, 287.933 254.069 C 274.017 244.929, 267.364 241.303, 266.358 242.308 C 265.947 242.720, 268.648 246.118, 272.361 249.859 C 278.603 256.150, 279.026 256.848, 277.987 259.130 C 276.978 261.343, 277.285 262.056, 280.957 266.048 C 291.945 277.993, 303.472 299.407, 307.070 314.559 C 309.402 324.378, 309.367 335.167, 306.985 340.500 C 305.700 343.378, 305.613 343.138, 304.830 334.582 C 303.587 320.981, 299.746 308.087, 292.591 293.500 C 284.053 276.094, 269.134 253.876, 263.278 249.847 C 260.848 248.175, 258.712 246.963, 258.532 247.154 C 258.352 247.344, 259.485 250.650, 261.050 254.500 C 262.615 258.350, 263.919 262.132, 263.948 262.905 C 264.043 265.475, 260.436 261.267, 255.397 252.932 C 249.323 242.885, 247.389 242.454, 250.083 251.750 C 253.036 261.939, 257.724 280.053, 258.420 283.969 C 259.312 288.980, 257.542 286.450, 255.994 280.500 C 254.213 273.660, 249.960 263, 249.010 263 C 247.943 263, 247.043 266.707, 246.948 271.500 L 246.868 275.500 245.441 270.197 C 241.725 256.388, 238.739 257.977, 237.356 274.500 L 236.603 283.500 235.839 272.087 C 235.418 265.810, 234.682 260.282, 234.204 259.804 C 233.153 258.753, 231.593 265.593, 229.484 280.500 C 224.685 314.425, 216.815 327.896, 192.676 343.502 C 180.920 351.102, 180.868 352.069, 192.343 349.710 C 196.036 348.950, 198.909 348.592, 198.727 348.914 C 193.996 357.321, 191.492 368.950, 194.069 370.543 C 194.958 371.092, 196.061 370.402, 197.445 368.429 C 200.619 363.904, 210.687 354.110, 219.249 347.216 C 228.348 339.889, 232.503 334.600, 238.272 323 C 242.424 314.652, 242.505 314.565, 242.802 318.118 C 243.256 323.543, 240.470 334.117, 236.519 341.961 C 234.588 345.797, 229.451 353.601, 225.104 359.302 C 215.908 371.366, 212.553 377.554, 210.508 386.231 C 208.157 396.201, 209 409.500, 211.983 409.500 C 212.950 409.500, 214.051 407.195, 215.224 402.716 C 217.656 393.430, 220.771 387.685, 227.652 379.794 C 230.869 376.106, 236.842 369.249, 240.928 364.555 C 245.013 359.862, 248.565 356.232, 248.822 356.489 C 249.924 357.590, 245.454 366.447, 239.949 374.070 C 233.233 383.370, 232.704 386.037, 236.736 390.247 L 239.473 393.103 232.782 406.301 C 216.670 438.084, 200.242 462.833, 183.098 481.154 C 178.644 485.913, 175 490.285, 175 490.868 C 175 492.499, 178.063 493.775, 182.889 494.155 L 187.263 494.500 198.994 478.601 C 215.910 455.676, 226.094 439.267, 237.811 416.064 C 245.858 400.127, 249.332 394.329, 253.589 389.730 C 264.682 377.748, 274.057 356.774, 274.360 343.259 C 274.437 339.826, 274.914 337.152, 275.420 337.315 C 277.477 337.982, 282.181 349.090, 283.726 356.930 C 287.744 377.329, 279.842 404.696, 262.452 430.600 C 254.783 442.022, 253.587 445.685, 256.309 449.408 C 257.511 451.052, 258.617 450.365, 269.832 441.018 C 297.862 417.655, 312.241 393.453, 316.534 362.407 C 317.537 355.156, 319.421 347.312, 321.620 341.237 C 323.542 335.929, 325.378 328.754, 325.702 325.293 C 326.025 321.832, 326.655 319, 327.101 319 C 327.548 319, 329.089 322.712, 330.526 327.250 C 332.688 334.076, 333.090 337.052, 332.860 344.494 C 332.625 352.076, 332.831 353.536, 334.176 353.795 C 335.217 353.996, 336.494 352.606, 337.848 349.801 C 343.257 338.596, 343.345 322.608, 338.061 311.316 C 336.320 307.595, 333.694 302.977, 332.226 301.052 C 330.332 298.568, 329.364 295.805, 328.891 291.527 C 328.525 288.212, 327.915 284.600, 327.535 283.500 C 326.567 280.693, 333.299 288.168, 338.219 295.363 C 351.116 314.225, 356.953 343.910, 352.561 368.303 C 349.855 383.333, 352.495 386.848, 357.779 375.250 C 370.122 348.157, 371.272 317.668, 360.749 296.500 C 355.292 285.522, 349.049 277.250, 339.035 267.728 C 322.396 251.907, 303.426 240.062, 280.891 231.424 C 265.247 225.426, 266 225.656, 266 226.879 M 196.109 235.057 C 177.907 244.978, 160.883 258.544, 148.203 273.231 C 143.801 278.329, 138.805 283.822, 137.100 285.437 C 135.395 287.052, 134 288.806, 134 289.335 C 134 290.844, 149.996 289.257, 157.114 287.042 C 160.579 285.963, 163.610 285.277, 163.850 285.516 C 165.559 287.226, 154.373 293.163, 146.201 294.884 C 139.439 296.308, 133.921 296.292, 122.846 294.818 C 116.198 293.932, 113.678 293.922, 112.825 294.775 C 110.112 297.488, 118.138 302.269, 128.407 304.057 C 132.093 304.699, 134.826 305.508, 134.480 305.854 C 134.133 306.200, 131.339 307.387, 128.271 308.492 C 122.772 310.471, 119.805 313.142, 121.373 314.702 C 121.814 315.141, 127.648 315.476, 134.337 315.446 C 144.275 315.403, 147.461 315.009, 151.750 313.293 C 157.927 310.821, 158.424 311.734, 154.132 317.659 C 147.966 326.171, 138.589 332.409, 119.144 340.937 C 113.191 343.547, 106.217 347.131, 103.645 348.900 C 98.896 352.168, 95.232 356.565, 96.337 357.671 C 97.290 358.624, 111.436 360.886, 120.921 361.602 C 128.660 362.186, 144.508 360.894, 148.529 359.350 C 149.344 359.038, 150.291 357.031, 150.633 354.891 C 150.976 352.751, 151.817 351, 152.504 351 C 153.422 351, 153.889 354.901, 154.267 365.750 C 154.867 382.921, 156.679 390.481, 163.578 404.592 C 169.982 417.690, 187.940 439.004, 191.440 437.661 C 194.058 436.657, 193.260 434.465, 186.540 424.209 C 173.443 404.221, 168.772 384.833, 172.032 364 C 173.349 355.585, 174.740 352.217, 177.225 351.429 C 179.329 350.761, 188.151 342.720, 203.585 327.403 C 214.985 316.089, 219.782 307.158, 223.405 290.500 C 226.693 275.385, 228.259 265.065, 227.806 261.500 C 227.479 258.927, 227.116 259.496, 225.252 265.500 C 224.057 269.350, 221.477 278.532, 219.518 285.904 C 215.707 300.249, 212.554 307.164, 207.767 311.677 L 204.774 314.500 207.774 309.500 C 209.424 306.750, 212.371 300.450, 214.321 295.500 C 217.812 286.643, 223.491 266.158, 222.681 265.347 C 221.126 263.793, 210.668 280.132, 199.540 301.500 C 194.885 310.439, 193.939 311.751, 194.492 308.500 C 195.454 302.847, 200.996 289.841, 207.348 278.328 C 213.387 267.382, 221.506 249.975, 222.542 245.750 C 223.819 240.545, 221.169 242.942, 215.908 251.750 C 213.034 256.563, 206.273 267.288, 200.883 275.584 C 195.494 283.879, 187.886 296.254, 183.976 303.084 C 176.358 316.390, 169.706 324.127, 161.556 329.165 L 156.612 332.220 164.261 323.795 C 169.737 317.764, 171.771 314.821, 171.421 313.435 C 170.608 310.214, 176.979 298.594, 191.670 276.500 C 206.428 254.306, 213 243.300, 213 240.776 C 213 239.934, 212.383 238.733, 211.630 238.108 C 210.557 237.217, 208.903 238.003, 203.999 241.735 C 195.751 248.012, 183.019 257, 182.375 257 C 181.830 257, 197.621 243.692, 204.796 238.105 C 209.281 234.612, 209.855 232.942, 205.836 235.081 C 204.551 235.764, 199 239.693, 193.500 243.810 C 185.009 250.167, 184.104 250.654, 187.500 247.033 C 191.527 242.740, 201.073 234.521, 204.600 232.309 C 206.026 231.415, 206.126 231.106, 205 231.073 C 204.175 231.048, 200.174 232.841, 196.109 235.057 M 150.250 244.934 C 148.022 246.548, 145.834 248.460, 145.388 249.184 C 144.723 250.261, 150.712 246.057, 154.450 242.822 C 156.715 240.862, 153.956 242.249, 150.250 244.934 M 187.938 257.681 C 184.495 261.279, 184.173 261.859, 186.500 260.268 C 190.084 257.816, 193.508 254.175, 192.848 253.515 C 192.588 253.255, 190.378 255.129, 187.938 257.681 M 312 347.886 C 310.625 349.360, 307.939 351.765, 306.030 353.230 C 301.184 356.952, 302.729 357.645, 307.708 353.983 C 311.433 351.244, 315.623 346.262, 314.830 345.516 C 314.648 345.345, 313.375 346.412, 312 347.886" stroke="none" fill-rule="evenodd"/>
	</g>
	<style>
		g {
			fill: #000;
		}
		@media (prefers-color-scheme: dark) {
			g {
				fill: #fff;
			}
		}
	</style>
</svg>